<svg class="transform-gpu scale-135" viewBox="0 0 672 334" fill="none" xmlns="http://www.w3.org/2000/svg"><path d="M391 334V271.842L348 241.844V132.37M411 327.814V265.655L368 235.658V126.184M431 321.63V259.471L388 229.474V120M451 311.63V249.471L408 219.474V110M471 301.63V239.471L428 209.474V100M491 291.63V229.471L448 199.474V90M511 281.63V219.471L468 189.474V80M531 271.63V209.471L488 179.474V70M551 261.63V199.471L508 169.474V60M571 251.63V189.471L528 159.474V50M591 241.63V179.471L548 149.474V40M611 231.63V169.471L568 139.474V30M631 221.63V159.471L588 129.474V20M651 211.63V149.471L608 119.474V10M671 201.63V139.471L628 109.474V0M281 334V271.842L324 241.844V132.37M261 327.814V265.655L304 235.658V126.184M241 321.63V259.471L284 229.474V120M221 311.63V249.471L264 219.474V110M201 301.63V239.471L244 209.474V100M181 291.63V229.471L224 199.474V90M161 281.63V219.471L204 189.474V80M141 271.63V209.471L184 179.474V70M121 261.63V199.471L164 169.474V60M101 251.63V189.471L144 159.474V50M81 241.63V179.471L124 149.474V40M61 231.63V169.471L104 139.474V30M41 221.63V159.471L84 129.474V20M21 211.63V149.471L64 119.474V10M1 201.63V139.471L44 109.474V0" stroke="url(#paint0_linear_934_1725)" stroke-opacity="0.15" stroke-width="0.5"/><path d="M391 334V271.842L348 241.844V132.37M411 327.814V265.655L368 235.658V126.184M431 321.63V259.471L388 229.474V120M451 311.63V249.471L408 219.474V110M471 301.63V239.471L428 209.474V100M491 291.63V229.471L448 199.474V90M511 281.63V219.471L468 189.474V80M531 271.63V209.471L488 179.474V70M551 261.63V199.471L508 169.474V60M571 251.63V189.471L528 159.474V50M591 241.63V179.471L548 149.474V40M611 231.63V169.471L568 139.474V30M631 221.63V159.471L588 129.474V20M651 211.63V149.471L608 119.474V10M671 201.63V139.471L628 109.474V0M281 334V271.842L324 241.844V132.37M261 327.814V265.655L304 235.658V126.184M241 321.63V259.471L284 229.474V120M221 311.63V249.471L264 219.474V110M201 301.63V239.471L244 209.474V100M181 291.63V229.471L224 199.474V90M161 281.63V219.471L204 189.474V80M141 271.63V209.471L184 179.474V70M121 261.63V199.471L164 169.474V60M101 251.63V189.471L144 159.474V50M81 241.63V179.471L124 149.474V40M61 231.63V169.471L104 139.474V30M41 221.63V159.471L84 129.474V20M21 211.63V149.471L64 119.474V10M1 201.63V139.471L44 109.474V0" stroke="url(#paint1_linear_934_1725)" stroke-opacity="0.15" stroke-width="0.5"/><path d="M391 334V271.842L348 241.844V132.37M411 327.814V265.655L368 235.658V126.184M431 321.63V259.471L388 229.474V120M451 311.63V249.471L408 219.474V110M471 301.63V239.471L428 209.474V100M491 291.63V229.471L448 199.474V90M511 281.63V219.471L468 189.474V80M531 271.63V209.471L488 179.474V70M551 261.63V199.471L508 169.474V60M571 251.63V189.471L528 159.474V50M591 241.63V179.471L548 149.474V40M611 231.63V169.471L568 139.474V30M631 221.63V159.471L588 129.474V20M651 211.63V149.471L608 119.474V10M671 201.63V139.471L628 109.474V0M281 334V271.842L324 241.844V132.37M261 327.814V265.655L304 235.658V126.184M241 321.63V259.471L284 229.474V120M221 311.63V249.471L264 219.474V110M201 301.63V239.471L244 209.474V100M181 291.63V229.471L224 199.474V90M161 281.63V219.471L204 189.474V80M141 271.63V209.471L184 179.474V70M121 261.63V199.471L164 169.474V60M101 251.63V189.471L144 159.474V50M81 241.63V179.471L124 149.474V40M61 231.63V169.471L104 139.474V30M41 221.63V159.471L84 129.474V20M21 211.63V149.471L64 119.474V10M1 201.63V139.471L44 109.474V0" stroke="url(#paint2_linear_934_1725)" stroke-opacity="0.15" stroke-width="0.5"/><path d="M391 334V271.842L348 241.844V132.37M411 327.814V265.655L368 235.658V126.184M431 321.63V259.471L388 229.474V120M451 311.63V249.471L408 219.474V110M471 301.63V239.471L428 209.474V100M491 291.63V229.471L448 199.474V90M511 281.63V219.471L468 189.474V80M531 271.63V209.471L488 179.474V70M551 261.63V199.471L508 169.474V60M571 251.63V189.471L528 159.474V50M591 241.63V179.471L548 149.474V40M611 231.63V169.471L568 139.474V30M631 221.63V159.471L588 129.474V20M651 211.63V149.471L608 119.474V10M671 201.63V139.471L628 109.474V0M281 334V271.842L324 241.844V132.37M261 327.814V265.655L304 235.658V126.184M241 321.63V259.471L284 229.474V120M221 311.63V249.471L264 219.474V110M201 301.63V239.471L244 209.474V100M181 291.63V229.471L224 199.474V90M161 281.63V219.471L204 189.474V80M141 271.63V209.471L184 179.474V70M121 261.63V199.471L164 169.474V60M101 251.63V189.471L144 159.474V50M81 241.63V179.471L124 149.474V40M61 231.63V169.471L104 139.474V30M41 221.63V159.471L84 129.474V20M21 211.63V149.471L64 119.474V10M1 201.63V139.471L44 109.474V0" stroke="url(#paint3_linear_934_1725)" stroke-opacity="0.15" stroke-width="0.5"/><path d="M391 334V271.842L348 241.844V132.37M411 327.814V265.655L368 235.658V126.184M431 321.63V259.471L388 229.474V120M451 311.63V249.471L408 219.474V110M471 301.63V239.471L428 209.474V100M491 291.63V229.471L448 199.474V90M511 281.63V219.471L468 189.474V80M531 271.63V209.471L488 179.474V70M551 261.63V199.471L508 169.474V60M571 251.63V189.471L528 159.474V50M591 241.63V179.471L548 149.474V40M611 231.63V169.471L568 139.474V30M631 221.63V159.471L588 129.474V20M651 211.63V149.471L608 119.474V10M671 201.63V139.471L628 109.474V0M281 334V271.842L324 241.844V132.37M261 327.814V265.655L304 235.658V126.184M241 321.63V259.471L284 229.474V120M221 311.63V249.471L264 219.474V110M201 301.63V239.471L244 209.474V100M181 291.63V229.471L224 199.474V90M161 281.63V219.471L204 189.474V80M141 271.63V209.471L184 179.474V70M121 261.63V199.471L164 169.474V60M101 251.63V189.471L144 159.474V50M81 241.63V179.471L124 149.474V40M61 231.63V169.471L104 139.474V30M41 221.63V159.471L84 129.474V20M21 211.63V149.471L64 119.474V10M1 201.63V139.471L44 109.474V0" stroke="url(#paint4_linear_934_1725)" stroke-opacity="0.15" stroke-width="0.5"/><defs><linearGradient id="paint0_linear_934_1725" x1="340.5" y1="156.5" x2="54.5" y2="184" gradientUnits="userSpaceOnUse"><stop stop-color="white"/><stop offset="1" stop-color="white" stop-opacity="0"/></linearGradient><linearGradient id="paint1_linear_934_1725" x1="340.5" y1="156.5" x2="54.5" y2="184" gradientUnits="userSpaceOnUse"><stop stop-color="white"/><stop offset="1" stop-color="white" stop-opacity="0"/></linearGradient><linearGradient id="paint2_linear_934_1725" x1="340.5" y1="156.5" x2="54.5" y2="184" gradientUnits="userSpaceOnUse"><stop stop-color="white"/><stop offset="1" stop-color="white" stop-opacity="0"/></linearGradient><linearGradient id="paint3_linear_934_1725" x1="340.5" y1="156.5" x2="54.5" y2="184" gradientUnits="userSpaceOnUse"><stop stop-color="white"/><stop offset="1" stop-color="white" stop-opacity="0"/></linearGradient><linearGradient id="paint4_linear_934_1725" x1="340.5" y1="156.5" x2="54.5" y2="184" gradientUnits="userSpaceOnUse"><stop stop-color="white"/><stop offset="1" stop-color="white" stop-opacity="0"/></linearGradient></defs></svg>